<?xml version="1.0" standalone="no"?>
<!DOCTYPE svg PUBLIC "-//W3C//DTD SVG 20010904//EN"
 "http://www.w3.org/TR/2001/REC-SVG-20010904/DTD/svg10.dtd">
<svg version="1.0" xmlns="http://www.w3.org/2000/svg"
 width="468pt" height="514pt" viewBox="0 0 468 514"
 preserveAspectRatio="xMidYMid meet">
<metadata>
Created by potrace 1.8, written by Peter Selinger 2001-2007
</metadata>
<g transform="translate(0,514) scale(0.073354,-0.073354)"
fill="#000000" stroke="none">
<path d="M2956 5070 c-362 -33 -639 -146 -811 -332 -66 -71 -101 -140 -115
-225 -6 -32 -10 -190 -10 -350 l0 -293 305 0 305 0 0 318 c0 355 3 377 66 450
41 48 130 95 229 119 101 25 430 25 530 0 144 -37 231 -94 271 -182 l24 -50 0
-1227 0 -1228 300 0 300 0 0 1244 0 1243 -35 71 c-106 210 -390 369 -766 427
-125 19 -455 27 -593 15z"/>
</g>
</svg>
