<?xml version="1.0" standalone="no"?>
<!DOCTYPE svg PUBLIC "-//W3C//DTD SVG 20010904//EN"
 "http://www.w3.org/TR/2001/REC-SVG-20010904/DTD/svg10.dtd">
<svg version="1.0" xmlns="http://www.w3.org/2000/svg"
 width="468pt" height="514pt" viewBox="140 140 190 200"
 preserveAspectRatio="xMidYMid meet">
<metadata>
Created by potrace 1.8, written by Peter Selinger 2001-2007
</metadata>
<g transform="translate(0,514) scale(0.073354,-0.073354)"
fill="#000000" stroke="none">
<path d="M2996 5069 c-172 -24 -364 -93 -489 -176 -134 -89 -278 -242 -416
-442 l-51 -75 0 -1153 0 -1153 300 0 300 0 0 714 0 713 73 7 c264 25 735 108
949 167 366 101 587 261 659 477 18 55 20 81 17 215 -3 151 -3 153 -39 227
-45 95 -101 165 -178 224 -155 120 -369 201 -631 241 -130 19 -402 27 -494 14z
m424 -319 c192 -55 293 -161 321 -338 32 -198 -65 -358 -278 -459 -145 -69
-325 -108 -613 -132 -69 -6 -144 -13 -167 -15 l-43 -4 0 360 c0 311 2 365 16
394 39 81 189 178 325 209 95 22 339 13 439 -15z"/>
</g>
</svg>
