<?xml version="1.0" standalone="no"?>
<!DOCTYPE svg PUBLIC "-//W3C//DTD SVG 20010904//EN"
 "http://www.w3.org/TR/2001/REC-SVG-20010904/DTD/svg10.dtd">
<svg version="1.0" xmlns="http://www.w3.org/2000/svg"
 width="468pt" height="514pt" viewBox="50 30 350 300"
 preserveAspectRatio="xMidYMid meet">
<metadata>
Created by potrace 1.8, written by Peter Selinger 2001-2007
</metadata>
<g transform="translate(0,514) scale(0.073354,-0.073354)"
fill="#000000" stroke="none">
<path d="M2915 6384 c-635 -51 -1094 -234 -1410 -566 -191 -199 -338 -466
-406 -737 -47 -182 -51 -308 -46 -1301 4 -960 3 -943 56 -1094 105 -301 403
-515 821 -592 128 -24 441 -30 565 -10 291 44 504 158 655 348 l38 47 52 -62
c88 -105 166 -166 286 -225 190 -95 371 -127 664 -119 283 8 436 40 625 132
228 110 392 300 476 550 l24 70 3 1034 c3 1138 4 1110 -59 1308 -35 111 -115
285 -179 388 -279 455 -758 726 -1431 810 -119 15 -620 28 -734 19z m475 -334
c551 -57 914 -325 1114 -822 67 -167 88 -272 93 -472 l6 -178 -79 6 c-44 3
-158 11 -254 16 -618 38 -1010 178 -1295 464 -153 154 -279 358 -368 597 -41
109 -89 270 -83 276 11 11 155 54 257 77 194 43 412 56 609 36z m-1338 -587
c65 -181 337 -508 563 -676 362 -268 837 -436 1400 -496 91 -10 523 -41 567
-41 18 0 19 -22 16 -712 -3 -684 -4 -716 -24 -783 -68 -233 -220 -355 -444
-355 -268 0 -479 163 -557 430 -12 43 -17 120 -20 353 l-5 297 -359 0 -359 0
0 -287 c0 -320 -6 -366 -63 -482 -43 -88 -159 -207 -246 -250 -154 -78 -353
-81 -500 -7 -98 50 -174 155 -218 302 -16 54 -18 139 -21 1078 -3 1119 -4
1096 58 1285 43 133 168 391 188 391 4 0 15 -21 24 -47z"/>
</g>
</svg>
