<?xml version="1.0" standalone="no"?>
<!DOCTYPE svg PUBLIC "-//W3C//DTD SVG 20010904//EN"
 "http://www.w3.org/TR/2001/REC-SVG-20010904/DTD/svg10.dtd">
<svg version="1.0" xmlns="http://www.w3.org/2000/svg"
 width="468pt" height="514pt" viewBox="130 120 230 230"
 preserveAspectRatio="xMidYMid meet">
<metadata>
Created by potrace 1.8, written by Peter Selinger 2001-2007
</metadata>
<g transform="translate(0,514) scale(0.073354,-0.073354)"
fill="#000000" stroke="none">
<path d="M2930 5074 c-19 -2 -78 -9 -130 -15 -339 -38 -655 -182 -782 -355
-91 -125 -122 -233 -115 -399 3 -84 10 -126 29 -176 62 -168 212 -303 431
-390 59 -23 68 -30 50 -35 -12 -3 -70 -26 -128 -49 -261 -107 -423 -260 -499
-474 -30 -83 -31 -92 -31 -251 0 -154 2 -171 28 -247 71 -211 251 -380 512
-483 215 -84 407 -119 700 -127 432 -12 720 57 973 234 l62 44 0 -140 0 -141
295 0 295 0 0 1505 0 1505 -295 0 -295 0 0 -217 0 -216 -97 94 c-179 174 -356
269 -583 314 -73 15 -350 27 -420 19z m408 -322 c239 -65 407 -202 591 -481
l101 -154 0 -541 c0 -438 -3 -554 -15 -611 -20 -96 -102 -257 -165 -328 -143
-158 -354 -248 -630 -266 -426 -28 -713 78 -817 299 -39 82 -53 149 -53 253 0
335 244 530 751 602 57 8 125 15 152 15 l47 0 0 145 c0 108 -3 146 -12 149 -7
2 -72 13 -143 24 -323 51 -528 159 -607 320 -31 63 -33 73 -32 172 0 83 5 116
22 160 54 137 193 228 397 261 88 14 332 3 413 -19z"/>
</g>
</svg>
