<?xml version="1.0" standalone="no"?>
<!DOCTYPE svg PUBLIC "-//W3C//DTD SVG 20010904//EN"
 "http://www.w3.org/TR/2001/REC-SVG-20010904/DTD/svg10.dtd">
<svg version="1.0" xmlns="http://www.w3.org/2000/svg"
 width="468pt" height="514pt" viewBox="130 140 210 200"
 preserveAspectRatio="xMidYMid meet">
<metadata>
Created by potrace 1.8, written by Peter Selinger 2001-2007
</metadata>
<g transform="translate(0,514) scale(0.073354,-0.073354)"
fill="#000000" stroke="none">
<path d="M3190 5074 c-333 -30 -675 -142 -902 -293 -99 -66 -218 -193 -257
-274 -52 -105 -64 -175 -58 -317 7 -148 30 -238 90 -355 52 -100 169 -221 280
-290 297 -183 745 -251 1257 -191 63 8 116 13 118 11 2 -2 -184 -291 -412
-644 -229 -352 -416 -643 -416 -646 0 -3 139 -5 308 -5 l309 0 451 692 452
692 0 171 0 171 -252 -42 c-309 -51 -533 -80 -739 -95 -491 -34 -766 107 -834
427 -19 91 -19 197 1 265 66 224 371 406 714 426 166 9 284 -19 372 -88 68
-55 68 -64 -6 -98 -134 -60 -197 -162 -198 -318 0 -232 112 -345 372 -374 75
-9 125 -9 200 0 165 18 263 63 320 146 45 65 53 108 48 256 -5 150 -27 232
-90 336 -126 209 -380 364 -686 419 -85 15 -353 26 -442 18z"/>
</g>
</svg>
